# xmcd
# 
# Track frame offsets:
#     150
#     25768
#     42993
#     59050
#     81583
#     98851
#     118774
#     138427
#     156249
#     173278
#     190946
#     212392
#     229190
#     244809
#     260957
#     276217
#     291921
#     307548
#     323766
#     345206
# 
# Disc length: 4874
# 
# Revision: 13
# Processed by: cddbd v1.5.2PL0 Copyright (c) Steve Scherf et al.
# Submitted via: fre:ac v1.0.31
# 
DISCID=1e130814
DTITLE=Various Artist - Bravo Hits 33 - CD2
DYEAR=2001
DGENRE=Pop
TTITLE0=Glashaus - Wenn das Liebe ist
TTITLE1=Joe - Mystikal - Stutter
TTITLE2=LeAnn Rimes - Can't fight the moonlight
TTITLE3=Ricky Martin - Christina Aguilera - Nobody wants to be lonely
TTITLE4=Britney Spears - Don't let me be the last to know
TTITLE5=R. Kelly - The storm is over now
TTITLE6=Brandy - Ray J - Another day in paradise
TTITLE7=Bee Gees - This is where I came in
TTITLE8=Sugababes - Run for cover
TTITLE9=Nelly Furtado - I'm like a bird
TTITLE10=Robbie Williams - Let love be your energy
TTITLE11=The Vygors - Turn off the sun
TTITLE12=No Angels - Rivers of joy
TTITLE13=Modern Talking - Win the race
TTITLE14=Babyboy - Baby superstar
TTITLE15=Millane Fernandez - Boom, boom
TTITLE16=Girls@Play - Airhead
TTITLE17=Ole Feddersen - Wir sehen uns wieder
TTITLE18=Thomas D - Uns trennt das Leben
TTITLE19=Sleepwalker - Hamburg City Allstars - Vorsprechtermin
EXTD=Doppel CD YEAR: 2001
EXTT0=
EXTT1=
EXTT2=
EXTT3=
EXTT4=
EXTT5=
EXTT6=
EXTT7=
EXTT8=
EXTT9=
EXTT10=
EXTT11=
EXTT12=
EXTT13=
EXTT14=
EXTT15=
EXTT16=
EXTT17=
EXTT18=
EXTT19=
PLAYORDER=
